<svg width="32" height="32" viewBox="0 0 32 32" fill="none" xmlns="http://www.w3.org/2000/svg">
  <rect width="32" height="32" rx="7" fill="#050A10"/>
  <path d="M7.5 24V16.2C7.5 15.5373 8.03726 15 8.7 15H11.3C11.9627 15 12.5 15.5373 12.5 16.2V24H7.5Z" fill="#0E1821" stroke="#FF6A3D" stroke-width="1.4"/>
  <path d="M13.75 24V11.8C13.75 11.1373 14.2873 10.6 14.95 10.6H17.05C17.7127 10.6 18.25 11.1373 18.25 11.8V24H13.75Z" fill="#101C26" stroke="#F3C24D" stroke-width="1.4"/>
  <path d="M19.5 24V13.9C19.5 13.2373 20.0373 12.7 20.7 12.7H23.3C23.9627 12.7 24.5 13.2373 24.5 13.9V24H19.5Z" fill="#0F1B25" stroke="#59A8FF" stroke-width="1.4"/>
  <path d="M10 15V8.3" stroke="#FF6A3D" stroke-width="1.6" stroke-linecap="square"/>
  <path d="M16 10.6V7" stroke="#F3C24D" stroke-width="1.6" stroke-linecap="square"/>
  <path d="M22 12.7V9.2" stroke="#59A8FF" stroke-width="1.6" stroke-linecap="square"/>
  <rect x="8.9" y="6.5" width="2.2" height="2.2" rx="0.45" fill="#FF6A3D"/>
  <rect x="14.9" y="5.2" width="2.2" height="2.2" rx="0.45" fill="#F3C24D"/>
  <rect x="20.9" y="7.4" width="2.2" height="2.2" rx="0.45" fill="#59A8FF"/>
  <path d="M6 25.5H26" stroke="#162532" stroke-width="1.4" stroke-linecap="square"/>
</svg>
